<svg width="27" height="27" viewBox="0 0 27 27" fill="none" xmlns="http://www.w3.org/2000/svg">
<path d="M21.375 14.5H22.375V12.5H21.375V14.5ZM5.625 12.5H4.625V14.5H5.625V12.5ZM21.375 12.5H5.625V14.5H21.375V12.5Z" fill="#FFFFFF"/>
<path d="M10.5434 22.0821L11.2505 22.7892L12.6647 21.375L11.9576 20.6679L10.5434 22.0821ZM3.37549 13.5L2.66838 12.7929L1.96127 13.5L2.66838 14.2071L3.37549 13.5ZM11.9576 6.33211L12.6647 5.625L11.2505 4.21079L10.5434 4.91789L11.9576 6.33211ZM11.9576 20.6679L4.0826 12.7929L2.66838 14.2071L10.5434 22.0821L11.9576 20.6679ZM4.0826 14.2071L11.9576 6.33211L10.5434 4.91789L2.66838 12.7929L4.0826 14.2071Z" fill="#FFFFFF"/>
</svg>
