<svg width="13" height="16" viewBox="0 0 13 16" fill="none" xmlns="http://www.w3.org/2000/svg">
<path d="M11.5555 4.33337C11.364 4.33337 11.1803 4.40947 11.0448 4.54491C10.9094 4.68035 10.8333 4.86405 10.8333 5.0556V13.138C10.8126 13.5032 10.6484 13.8454 10.3765 14.0902C10.1046 14.3349 9.74699 14.4622 9.38161 14.4445H3.61828C3.2529 14.4622 2.89532 14.3349 2.62342 14.0902C2.35152 13.8454 2.18733 13.5032 2.16661 13.138V5.0556C2.16661 4.86405 2.09052 4.68035 1.95508 4.54491C1.81964 4.40947 1.63594 4.33337 1.44439 4.33337C1.25284 4.33337 1.06915 4.40947 0.933702 4.54491C0.798259 4.68035 0.722168 4.86405 0.722168 5.0556V13.138C0.742783 13.8864 1.05914 14.5961 1.60196 15.1117C2.14479 15.6273 2.86982 15.9068 3.61828 15.8889H9.38161C10.1301 15.9068 10.8551 15.6273 11.3979 15.1117C11.9407 14.5961 12.2571 13.8864 12.2777 13.138V5.0556C12.2777 4.86405 12.2016 4.68035 12.0662 4.54491C11.9307 4.40947 11.747 4.33337 11.5555 4.33337Z" fill="#DF0000"/>
<path d="M12.2778 2.16667H9.38889V0.722222C9.38889 0.530677 9.3128 0.346977 9.17735 0.211534C9.04191 0.076091 8.85821 0 8.66667 0H4.33333C4.14179 0 3.95809 0.076091 3.82265 0.211534C3.6872 0.346977 3.61111 0.530677 3.61111 0.722222V2.16667H0.722222C0.530677 2.16667 0.346977 2.24276 0.211534 2.3782C0.076091 2.51364 0 2.69734 0 2.88889C0 3.08043 0.076091 3.26413 0.211534 3.39958C0.346977 3.53502 0.530677 3.61111 0.722222 3.61111H12.2778C12.4693 3.61111 12.653 3.53502 12.7885 3.39958C12.9239 3.26413 13 3.08043 13 2.88889C13 2.69734 12.9239 2.51364 12.7885 2.3782C12.653 2.24276 12.4693 2.16667 12.2778 2.16667ZM5.05556 2.16667V1.44444H7.94444V2.16667H5.05556Z" fill="#DF0000"/>
<path d="M5.77794 11.5556V6.50005C5.77794 6.30851 5.70185 6.12481 5.56641 5.98937C5.43096 5.85392 5.24726 5.77783 5.05572 5.77783C4.86417 5.77783 4.68047 5.85392 4.54503 5.98937C4.40959 6.12481 4.3335 6.30851 4.3335 6.50005V11.5556C4.3335 11.7472 4.40959 11.9309 4.54503 12.0663C4.68047 12.2017 4.86417 12.2778 5.05572 12.2778C5.24726 12.2778 5.43096 12.2017 5.56641 12.0663C5.70185 11.9309 5.77794 11.7472 5.77794 11.5556Z" fill="#DF0000"/>
<path d="M8.66661 11.5556V6.50005C8.66661 6.30851 8.59052 6.12481 8.45508 5.98937C8.31964 5.85392 8.13594 5.77783 7.94439 5.77783C7.75284 5.77783 7.56915 5.85392 7.4337 5.98937C7.29826 6.12481 7.22217 6.30851 7.22217 6.50005V11.5556C7.22217 11.7472 7.29826 11.9309 7.4337 12.0663C7.56915 12.2017 7.75284 12.2778 7.94439 12.2778C8.13594 12.2778 8.31964 12.2017 8.45508 12.0663C8.59052 11.9309 8.66661 11.7472 8.66661 11.5556Z" fill="#DF0000"/>
</svg>
