<svg width="25" height="25" viewBox="0 0 25 25" fill="none" xmlns="http://www.w3.org/2000/svg">
<path d="M2.36486 20H2.50001L9.02025 18.5811C9.14725 18.5599 9.26494 18.5011 9.35806 18.4121L20.4052 7.36492C21.2122 6.55966 21.6625 5.46438 21.6552 4.32443C21.6567 3.17561 21.208 2.07199 20.4052 1.25011C19.6 0.44311 18.5048 -0.00714406 17.3647 0.000162955C16.2175 -0.00998926 15.117 0.45462 14.3242 1.28393L3.31076 12.3311C3.21363 12.4093 3.14283 12.5154 3.10804 12.6351L1.68919 19.1554C1.65045 19.3895 1.72572 19.628 1.89191 19.7973C2.01664 19.9246 2.18664 19.9974 2.36486 20ZM17.3647 1.35151C18.988 1.35138 20.304 2.66722 20.3041 4.29048C20.3041 4.30179 20.304 4.31311 20.3039 4.32443C20.315 5.09774 20.0099 5.84209 19.4593 6.3852L15.304 2.19602C15.8514 1.652 16.5929 1.34808 17.3647 1.35151ZM14.358 3.1758L18.5134 7.33116L8.88504 16.9257L4.72968 12.8041L14.358 3.1758ZM4.18915 14.1555L7.5337 17.5L3.24319 18.446L4.18915 14.1555Z" fill="#8D969B" stroke="#8D969B" stroke-width="0.2"/>
<path d="M23.8175 23.6486H1.18251C0.809333 23.6486 0.506836 23.9511 0.506836 24.3243C0.506836 24.6975 0.809333 25 1.18251 25H23.8175C24.1907 25 24.4932 24.6975 24.4932 24.3243C24.4932 23.9511 24.1907 23.6486 23.8175 23.6486Z" fill="#8D969B" stroke="#8D969B" stroke-width="0.2"/>
</svg>
