<svg width="62" height="46" viewBox="0 0 62 46" fill="none" xmlns="http://www.w3.org/2000/svg">
<path d="M37.8931 15.7742C37.3947 15.2758 36.5845 15.2758 36.0862 15.7742C35.5878 16.2725 35.5878 17.0852 36.0862 17.581C37.5327 19.0276 38.3326 20.952 38.3326 23.0016C38.3326 27.2286 34.8927 30.6686 30.6657 30.6686C28.6161 30.6686 26.6916 29.8712 25.2451 28.4221C24.7468 27.9238 23.9366 27.9238 23.4382 28.4221C22.9399 28.918 22.9399 29.7307 23.4382 30.229C25.3651 32.1611 27.9336 33.2243 30.6657 33.2243C36.3034 33.2243 40.8882 28.6394 40.8882 23.0017C40.8882 20.2695 39.8252 17.7011 37.8931 15.7742Z" fill="black"/>
<path d="M32.4491 12.9517C31.869 12.8495 31.2761 12.7754 30.6679 12.7754C25.0302 12.7754 20.4453 17.3602 20.4453 22.998C20.4453 23.6062 20.5195 24.1992 20.6242 24.7792C20.734 25.3977 21.2733 25.8347 21.879 25.8347C21.9532 25.8347 22.0272 25.8296 22.1039 25.8143C22.7964 25.6916 23.2616 25.0271 23.1389 24.3345C23.0597 23.9 23.0009 23.458 23.0009 22.998C23.0009 18.771 26.4409 15.331 30.6679 15.331C31.1279 15.331 31.5701 15.3898 32.0045 15.4665C32.6843 15.6045 33.3615 15.124 33.4842 14.4315C33.6069 13.7389 33.1418 13.0744 32.4491 12.9517Z" fill="black"/>
<path d="M61.0329 22.1736C60.7441 21.8311 53.8311 13.763 44.296 8.82293C43.6774 8.49841 42.898 8.74375 42.5734 9.37244C42.2489 9.99862 42.4942 10.7703 43.1229 11.095C50.4679 14.8978 56.3356 20.832 58.3418 22.9993C55.2955 26.2986 43.3069 38.3332 30.6692 38.3332C26.3809 38.3332 22.0592 37.2982 17.8194 35.2536C17.1907 34.9444 16.4215 35.2128 16.1148 35.8491C15.8056 36.483 16.074 37.247 16.7103 37.5537C21.2977 39.7694 25.995 40.8888 30.6694 40.8888C46.4148 40.8888 60.4453 24.5224 61.0357 23.8247C61.4393 23.3492 61.4368 22.6515 61.0329 22.1736Z" fill="black"/>
<path d="M39.0532 6.57753C36.1449 5.59867 33.3234 5.10547 30.668 5.10547C14.9226 5.10547 0.892058 21.4719 0.301701 22.1696C-0.0714645 22.6092 -0.102132 23.2481 0.230183 23.726C0.406523 23.979 4.63102 29.9771 11.953 34.8406C12.1702 34.9863 12.413 35.0553 12.6583 35.0553C13.0698 35.0553 13.4762 34.8559 13.7215 34.4803C14.1125 33.895 13.9515 33.1002 13.3637 32.7117C7.98664 29.1364 4.30649 24.8199 2.92895 23.0641C5.87055 19.8695 17.9384 7.6612 30.668 7.6612C33.0473 7.6612 35.5954 8.11104 38.2379 8.99777C38.9074 9.23796 39.6332 8.86743 39.8556 8.19526C40.0806 7.52572 39.7227 6.8025 39.0532 6.57753Z" fill="black"/>
<path d="M53.2966 0.373765C52.7983 -0.124588 51.9881 -0.124588 51.4897 0.373765L8.04369 43.8199C7.54533 44.3183 7.54533 45.1285 8.04369 45.6268C8.29418 45.8747 8.62122 46 8.94839 46C9.27555 46 9.6026 45.8748 9.85057 45.6268L53.2966 2.18065C53.795 1.6823 53.795 0.872117 53.2966 0.373765Z" fill="black"/>
</svg>
