<svg width="61" height="36" viewBox="0 0 61 36" fill="none" xmlns="http://www.w3.org/2000/svg">
<path d="M60.7742 17.2381C60.2938 16.5391 48.7493 0.167969 30.4999 0.167969C14.8404 0.167969 0.886391 16.4451 0.299257 17.139C-0.0997522 17.6118 -0.0997522 18.3056 0.299257 18.7809C0.886391 19.4748 14.8404 35.7519 30.4999 35.7519C46.1594 35.7519 60.1133 19.4748 60.7004 18.7809C61.069 18.3438 61.102 17.7109 60.7742 17.2381ZM30.4999 33.2103C17.9464 33.2103 6.01048 21.2388 2.9783 17.96C6.00547 14.6787 17.9287 2.70976 30.4999 2.70976C45.1884 2.70976 55.5561 14.6635 58.0876 17.8914C55.1646 21.0659 43.1601 33.2103 30.4999 33.2103Z" fill="black"/>
<path d="M30.4988 7.79297C24.8919 7.79297 20.332 12.3528 20.332 17.9598C20.332 23.5667 24.8919 28.1266 30.4988 28.1266C36.1058 28.1266 40.6656 23.5667 40.6656 17.9598C40.6656 12.3528 36.1058 7.79297 30.4988 7.79297ZM30.4988 25.585C26.2949 25.585 22.8737 22.1638 22.8737 17.9599C22.8737 13.7559 26.2949 10.3348 30.4988 10.3348C34.7028 10.3348 38.124 13.7559 38.124 17.9599C38.124 22.1638 34.7028 25.585 30.4988 25.585Z" fill="black"/>
</svg>
