<svg xmlns="http://www.w3.org/2000/svg" viewBox="0 0 24 24"><path fill-rule="evenodd" d="M22.118 15.262c-.177 1.315-.299 3.037-1.221 4.056-.275.306-1.644 1.129-2.328 1.129-.236 0-.391-.098-.391-.349a.68.68 0 0 1 .004-.076c1.347-10.56.807-16.334 1.363-16.358 2.005.597 2.914.927 2.914 6.245.001 2.133-.2 4.303-.341 5.353zM17.2 3.633c-2.119 7.918-1.917 10.107-5.11 10.107-2.339 0-2.881-.893-3.666-3.757a498.844 498.844 0 0 1-1.649-6.49c0-.22 2.895-.391 5.635-.391 2.46 0 4.794.138 4.794.503a.095.095 0 0 1-.004.028zm-1.945 17.102c-.124.022-1.626.066-3.184.066-1.756 0-3.582-.056-3.582-.26 0-.029.708-2.371.708-2.371.361-1.21.33-1.902 2.803-1.902 2.516 0 2.466.775 2.802 1.902.489 1.642.709 2.207.709 2.415.001.132-.089.12-.256.15zM3.103 19.318c-1.339-1.481-1.544-6.999-1.544-9.417v-.588c0-3.3.077-4.809 2.897-5.648.657.028-.112 4.795 1.363 16.358a.596.596 0 0 1 .004.071c0 .251-.157.349-.397.349-.68-.001-2.02-.789-2.323-1.125zm20.854-11.47C23.678 3.012 21.867 2.008 12 2 2.021 2.008-.009 2.745-.009 9.16c0 1.051.054 2.254.137 3.631C.655 21.368 1.95 21.95 12 22c8.372-.042 12.075.146 12.075-10.49 0-1.1-.039-2.317-.118-3.662z" clip-rule="evenodd" fill="#FF0000" class="color000000 svgShape"></path></svg>